<svg version="1.2" xmlns="http://www.w3.org/2000/svg" viewBox="0 0 40 84" width="40" height="84">
	<title>knife-svg</title>
	<style>
		.s0 { fill: #17a075 } 
	</style>
	<path id="Layer" fill-rule="evenodd" class="s0" d="m16.3 76.9c-1.8 0.9-3.9 1.9-6 2.1 3.6-2.2 6.5-5.8 8.4-9.5 1.6-3 2.8-6.6 3.1-10 0.2-2.7 0.1-5.3-0.4-7.9-0.2-1.5-0.6-2.9-1.1-4.4q-0.1-0.5-0.3-1c-0.2-0.5-0.4 0-0.8-0.3-0.3-0.3-1-1.9-1-2.3 0.1-0.5 1.4-0.8 1.8-1 0.9-0.4 1.7-1.1 2.3-2 1.2-1.5 1.2-3.6 0.1-5.2-0.5-0.8-1.3-1.5-2.2-2-0.6-0.3-0.5-0.3-0.3-0.9 0.6-1.8 0.2-3.8-1-5.3-0.5-0.7-1.1-1.2-1.8-1.6-0.3-0.2-0.7-0.3-0.7-0.7 0.2-1.5 0.3-3.1-0.8-4.2-0.5-0.5-1.2-0.9-1.8-1.2-0.2-0.1-0.8-0.3-0.6-0.6q-0.5 0-1.1-0.1c-2.8-0.2-5.3-2.4-6-5.1-0.4-1.8 0.2-3.6 1.1-5.2q0.4-0.7 0.8-1.3c0.1-0.3 0.4-0.5 0.4-0.8 0.1-0.4 0.2-2.5 0.9-2.4 0.4 0 0.9 0.6 1.2 0.8 0.8 0.4 1.6 0.8 2.4 1.1q1.4 0.3 2.8 0.7 0.6 0.2 1.3 0.4c0.3 0.1 0.4 0.6 0.6 0.9 0.3-0.3 0.3-0.5 0.8-0.4 0.5 0.2 0.9 0.3 1.4 0.6 0.4 0.3 0 1.7 0.9 1.6 0.7-0.1 0.3 0.6 0.3 0.9 0.1 0.5 0.4 0.4 0.8 0.6 0.3 0.1 0.5 0.3 0.5 0.6 0 0.3-0.3 0.5-0.2 0.8 0 0.3 0.3 0.3 0.6 0.5 0.6-0.1 0.7 0.6 0.6 1 0 0.3-0.2 0.4 0.3 0.5 0.8 0.1 0.7 0.5 0.8 1.1 0.1 0.3 0.3 0.4 0.6 0.6 0.2 0.2 0.4 0.5 0.5 0.8 0.1 0.1 0.1 0.3 0.3 0.4 0.1 0 0.1 0 0.2 0.1q0.7 1.2 1.3 2.3c1.7 3.3 2.9 6.7 3.7 10.2q0.3 0.9 0.5 1.8c0.1 0.4 0 0.5-0.2 0.8-0.1 0.2-0.3 0.5-0.3 0.7 0 0.2 0.1 0.4 0.1 0.6 0.1 0.3 0 0.8 0 1.1-0.2 2.1 0 4.5 0.7 6.5 0.3 0.7 0.6 1.4 1.2 2 0.1 0.2 0.7 0.6 0.7 0.9 0.1 0.6 0.6 2.2 0.1 2.6-0.1 0.1-0.8 0.3-0.8 0.4q0 0.5 0 1.1-0.2 1.8-0.3 3.6c-0.2 1.7-0.6 3.4-0.9 5.1-0.5 2.6-1.7 5-3 7.4-1.7 3-3.7 5.8-6.4 8-1.9 1.6-3.9 3-6.1 4.2zm-2-68.8c-1.2-0.4-2.4-0.6-3.5-0.2-1.2 0.5-2 1-2.7 2.1-0.6 1-0.7 1.7-0.6 2.8 0.1 1.2 0.5 2.1 1.4 3 1.2 1.1 2.9 1.5 4.5 1 1.5-0.3 3-1.6 3.5-3 0.3-0.8 0.2-1.6 0.2-2.4-0.1-1.3-1.6-2.9-2.8-3.3z"/>
</svg>